<svg xmlns="http://www.w3.org/2000/svg" viewBox="0 0 512 512">
  <rect width="512" height="512" rx="64" fill="#0a0e17" stroke="#1f2937" stroke-width="8"/>
  <g transform="translate(256,230)">
    <!-- Large gear -->
    <circle cx="0" cy="0" r="80" fill="none" stroke="#00FF00" stroke-width="16"/>
    <circle cx="0" cy="0" r="32" fill="#00FF00"/>
    <g fill="#00FF00">
      <rect x="-12" y="-140" width="24" height="28" rx="4"/>
      <rect x="-12" y="112" width="24" height="28" rx="4"/>
      <rect x="-140" y="-12" width="28" height="24" rx="4"/>
      <rect x="112" y="-12" width="28" height="24" rx="4"/>
      <rect x="68" y="-98" width="24" height="22" rx="4" transform="rotate(45,80,-87)"/>
      <rect x="-92" y="-70" width="24" height="22" rx="4" transform="rotate(-45,-80,59)"/>
      <rect x="68" y="76" width="24" height="22" rx="4" transform="rotate(-45,80,87)"/>
      <rect x="-92" y="46" width="24" height="22" rx="4" transform="rotate(45,-80,-59)"/>
    </g>
  </g>
  <text x="256" y="450" text-anchor="middle" font-size="36" font-family="sans-serif" font-weight="bold" fill="#e5e7eb">自动化调试专家</text>
  <text x="256" y="488" text-anchor="middle" font-size="18" font-family="sans-serif" fill="#9ca3af">Automation Expert</text>
</svg>
