<svg xmlns="http://www.w3.org/2000/svg" viewBox="0 0 192 192">
  <rect width="192" height="192" rx="32" fill="#0a0e17" stroke="#1f2937" stroke-width="4"/>
  <g transform="translate(96,96)">
    <!-- Gear icon -->
    <circle cx="0" cy="0" r="30" fill="none" stroke="#00FF00" stroke-width="8"/>
    <circle cx="0" cy="0" r="12" fill="#00FF00"/>
    <!-- Gear teeth -->
    <g fill="#00FF00">
      <rect x="-5" y="-52" width="10" height="14" rx="2"/>
      <rect x="-5" y="38" width="10" height="14" rx="2"/>
      <rect x="-52" y="-5" width="14" height="10" rx="2"/>
      <rect x="38" y="-5" width="14" height="10" rx="2"/>
      <rect x="26" y="-36" width="12" height="10" rx="2" transform="rotate(45, 32,-31)"/>
      <rect x="-38" y="-26" width="12" height="10" rx="2" transform="rotate(-45, -32,21)"/>
      <rect x="26" y="26" width="12" height="10" rx="2" transform="rotate(-45, 32,31)"/>
      <rect x="-38" y="16" width="12" height="10" rx="2" transform="rotate(45, -32,-21)"/>
    </g>
  </g>
  <text x="96" y="172" text-anchor="middle" font-size="14" font-family="sans-serif" fill="#9ca3af">调试专家</text>
</svg>
